solid SketchUp STL Low polly chess                                                    
facet normal -4.00367539635e-16 0.994521915913 0.104528464377
outer loop
vertex 77.182510376 -6.12584877014 21.4689178467
vertex 91.0 -4.5 6.0
vertex 81.0 -4.5 6.0
endloop
endfacet
facet normal -4.00367539635e-16 0.994521915913 0.104528464377
outer loop
vertex 91.0 -4.5 6.0
vertex 77.182510376 -6.12584877014 21.4689178467
vertex 93.3531799316 -5.01682567596 10.9172687531
endloop
endfacet
facet normal -4.00367539635e-16 0.994521915913 0.104528464377
outer loop
vertex 93.3531799316 -5.01682567596 10.9172687531
vertex 77.182510376 -6.12584877014 21.4689178467
vertex 93.3531799316 -5.37835454941 14.3569831848
endloop
endfacet
facet normal -4.00367539635e-16 0.994521915913 0.104528464377
outer loop
vertex 93.3531799316 -5.37835454941 14.3569831848
vertex 77.182510376 -6.12584877014 21.4689178467
vertex 84.6345977783 -6.09113168716 21.1386051178
endloop
endfacet
facet normal -4.00367539635e-16 0.994521915913 0.104528464377
outer loop
vertex 84.6345977783 -6.09113168716 21.1386051178
vertex 93.9789733887 -5.93857240677 19.6871032715
vertex 93.0253829956 -5.82830810547 18.638004303
endloop
endfacet
facet normal -4.00367539635e-16 0.994521915913 0.104528464377
outer loop
vertex 93.9789733887 -5.93857240677 19.6871032715
vertex 84.6345977783 -6.09113168716 21.1386051178
vertex 94.3654251099 -6.23226213455 22.4813747406
endloop
endfacet
facet normal -4.00367539635e-16 0.994521915913 0.104528464377
outer loop
vertex 94.3654251099 -6.23226213455 22.4813747406
vertex 84.6345977783 -6.09113168716 21.1386051178
vertex 77.182510376 -6.12584877014 21.4689178467
endloop
endfacet
facet normal -4.00367539635e-16 0.994521915913 0.104528464377
outer loop
vertex 94.3654251099 -6.23226213455 22.4813747406
vertex 77.182510376 -6.12584877014 21.4689178467
vertex 78.3592147827 -6.68918371201 26.8286914825
endloop
endfacet
facet normal -4.00367539635e-16 0.994521915913 0.104528464377
outer loop
vertex 94.3654251099 -6.23226213455 22.4813747406
vertex 78.3592147827 -6.68918371201 26.8286914825
vertex 84.5251312256 -6.99176073074 29.7075195312
endloop
endfacet
facet normal 0.990571320057 1.0993090051e-16 -0.136998236179
outer loop
vertex 93.9789733887 -5.93857240677 19.6871032715
vertex 94.3654251099 -12.7677373886 22.4813747406
vertex 93.9789733887 -13.0614271164 19.6871032715
endloop
endfacet
facet normal 0.990571320057 1.0993090051e-16 -0.136998236179
outer loop
vertex 94.3654251099 -12.7677373886 22.4813747406
vertex 93.9789733887 -5.93857240677 19.6871032715
vertex 94.3654251099 -6.23226213455 22.4813747406
endloop
endfacet
facet normal 0.591892421246 -1.36554024839e-15 0.806016981602
outer loop
vertex 94.3654251099 -12.7677373886 22.4813747406
vertex 84.5251312256 -6.99176073074 29.7075195312
vertex 84.5251312256 -12.0082387924 29.7075195312
endloop
endfacet
facet normal 0.591892421246 -1.36554024839e-15 0.806016981602
outer loop
vertex 84.5251312256 -6.99176073074 29.7075195312
vertex 94.3654251099 -12.7677373886 22.4813747406
vertex 94.3654251099 -6.23226213455 22.4813747406
endloop
endfacet
facet normal -0.423054486513 -2.93794182436e-15 0.906104266644
outer loop
vertex 84.5251312256 -12.0082387924 29.7075195312
vertex 78.3592147827 -6.68918371201 26.8286914825
vertex 78.3592147827 -12.3108167648 26.8286914825
endloop
endfacet
facet normal -0.423054486513 -2.93794182436e-15 0.906104266644
outer loop
vertex 78.3592147827 -6.68918371201 26.8286914825
vertex 84.5251312256 -12.0082387924 29.7075195312
vertex 84.5251312256 -6.99176073074 29.7075195312
endloop
endfacet
facet normal -0.976737976074 -5.11250822815e-16 0.214436322451
outer loop
vertex 78.3592147827 -12.3108167648 26.8286914825
vertex 77.182510376 -6.12584877014 21.4689178467
vertex 77.182510376 -12.8741512299 21.4689178467
endloop
endfacet
facet normal -0.976737976074 -5.11250822815e-16 0.214436322451
outer loop
vertex 77.182510376 -6.12584877014 21.4689178467
vertex 78.3592147827 -12.3108167648 26.8286914825
vertex 78.3592147827 -6.68918371201 26.8286914825
endloop
endfacet
facet normal -0.970872581005 8.57492083617e-17 -0.239596411586
outer loop
vertex 77.182510376 -12.8741512299 21.4689178467
vertex 81.0 -4.5 6.0
vertex 81.0 -14.5 6.0
endloop
endfacet
facet normal -0.970872581005 8.57492083617e-17 -0.239596411586
outer loop
vertex 81.0 -4.5 6.0
vertex 77.182510376 -12.8741512299 21.4689178467
vertex 77.182510376 -6.12584877014 21.4689178467
endloop
endfacet
facet normal 0.902031183243 1.80491881685e-16 -0.431670844555
outer loop
vertex 91.0 -4.5 6.0
vertex 93.3531799316 -13.983174324 10.9172687531
vertex 91.0 -14.5 6.0
endloop
endfacet
facet normal 0.902031183243 1.80491881685e-16 -0.431670844555
outer loop
vertex 93.3531799316 -13.983174324 10.9172687531
vertex 91.0 -4.5 6.0
vertex 93.3531799316 -5.01682567596 10.9172687531
endloop
endfacet
facet normal -1.0 0.0 0.0
outer loop
vertex 78.0 -1.5 2.0
vertex 78.0 -17.5 0.0
vertex 78.0 -17.5 2.0
endloop
endfacet
facet normal -1.0 0.0 0.0
outer loop
vertex 78.0 -17.5 0.0
vertex 78.0 -1.5 2.0
vertex 78.0 -1.5 0.0
endloop
endfacet
facet normal 0.0 0.0 -1.0
outer loop
vertex 94.0 -1.5 0.0
vertex 78.0 -17.5 0.0
vertex 78.0 -1.5 0.0
endloop
endfacet
facet normal 0.0 0.0 -1.0
outer loop
vertex 78.0 -17.5 0.0
vertex 94.0 -1.5 0.0
vertex 94.0 -17.5 0.0
endloop
endfacet
facet normal 0.0 1.0 0.0
outer loop
vertex 78.0 -1.5 2.0
vertex 94.0 -1.5 0.0
vertex 78.0 -1.5 0.0
endloop
endfacet
facet normal 0.0 1.0 0.0
outer loop
vertex 94.0 -1.5 0.0
vertex 78.0 -1.5 2.0
vertex 94.0 -1.5 2.0
endloop
endfacet
facet normal 1.0 0.0 0.0
outer loop
vertex 94.0 -1.5 0.0
vertex 94.0 -17.5 2.0
vertex 94.0 -17.5 0.0
endloop
endfacet
facet normal 1.0 0.0 0.0
outer loop
vertex 94.0 -17.5 2.0
vertex 94.0 -1.5 0.0
vertex 94.0 -1.5 2.0
endloop
endfacet
facet normal 0.0 -1.0 0.0
outer loop
vertex 94.0 -17.5 2.0
vertex 78.0 -17.5 0.0
vertex 94.0 -17.5 0.0
endloop
endfacet
facet normal 0.0 -1.0 0.0
outer loop
vertex 78.0 -17.5 0.0
vertex 94.0 -17.5 2.0
vertex 78.0 -17.5 2.0
endloop
endfacet
facet normal -0.800000011921 0.0 0.600000023842
outer loop
vertex 81.0 -14.5 6.0
vertex 78.0 -1.5 2.0
vertex 78.0 -17.5 2.0
endloop
endfacet
facet normal -0.800000011921 0.0 0.600000023842
outer loop
vertex 78.0 -1.5 2.0
vertex 81.0 -14.5 6.0
vertex 81.0 -4.5 6.0
endloop
endfacet
facet normal 0.0 -0.800000011921 0.600000023842
outer loop
vertex 91.0 -14.5 6.0
vertex 78.0 -17.5 2.0
vertex 94.0 -17.5 2.0
endloop
endfacet
facet normal 0.0 -0.800000011921 0.600000023842
outer loop
vertex 78.0 -17.5 2.0
vertex 91.0 -14.5 6.0
vertex 81.0 -14.5 6.0
endloop
endfacet
facet normal 0.613968789577 -1.00817005992e-15 0.789330303669
outer loop
vertex 93.3531799316 -13.6216459274 14.3569831848
vertex 90.8815841675 -10.8163509369 16.2794780731
vertex 84.6345977783 -12.9088687897 21.1386051178
endloop
endfacet
facet normal 0.613968789577 -1.00817005992e-15 0.789330303669
outer loop
vertex 90.8815841675 -10.8163509369 16.2794780731
vertex 93.3531799316 -13.6216459274 14.3569831848
vertex 90.8815841675 -8.18660736084 16.2794780731
endloop
endfacet
facet normal 0.613968789577 -1.00817005992e-15 0.789330303669
outer loop
vertex 90.8815841675 -8.18660736084 16.2794780731
vertex 93.3531799316 -5.37835454941 14.3569831848
vertex 84.6345977783 -6.09113168716 21.1386051178
endloop
endfacet
facet normal 0.613968789577 -1.00817005992e-15 0.789330303669
outer loop
vertex 93.3531799316 -5.37835454941 14.3569831848
vertex 90.8815841675 -8.18660736084 16.2794780731
vertex 93.3531799316 -13.6216459274 14.3569831848
endloop
endfacet
facet normal 1.0 0.0 0.0
outer loop
vertex 93.3531799316 -5.01682567596 10.9172687531
vertex 93.3531799316 -13.6216459274 14.3569831848
vertex 93.3531799316 -13.983174324 10.9172687531
endloop
endfacet
facet normal 1.0 0.0 0.0
outer loop
vertex 93.3531799316 -13.6216459274 14.3569831848
vertex 93.3531799316 -5.01682567596 10.9172687531
vertex 93.3531799316 -5.37835454941 14.3569831848
endloop
endfacet
facet normal 0.800000011921 0.0 0.600000023842
outer loop
vertex 94.0 -1.5 2.0
vertex 91.0 -14.5 6.0
vertex 94.0 -17.5 2.0
endloop
endfacet
facet normal 0.800000011921 0.0 0.600000023842
outer loop
vertex 91.0 -14.5 6.0
vertex 94.0 -1.5 2.0
vertex 91.0 -4.5 6.0
endloop
endfacet
facet normal 0.0 0.800000011921 0.600000023842
outer loop
vertex 81.0 -4.5 6.0
vertex 94.0 -1.5 2.0
vertex 78.0 -1.5 2.0
endloop
endfacet
facet normal 0.0 0.800000011921 0.600000023842
outer loop
vertex 94.0 -1.5 2.0
vertex 81.0 -4.5 6.0
vertex 91.0 -4.5 6.0
endloop
endfacet
facet normal 4.39840386708e-16 -0.994521915913 0.104528464377
outer loop
vertex 93.9789733887 -13.0614271164 19.6871032715
vertex 84.6345977783 -12.9088687897 21.1386051178
vertex 93.0253829956 -13.1716918945 18.638004303
endloop
endfacet
facet normal 4.39840386708e-16 -0.994521915913 0.104528464377
outer loop
vertex 84.6345977783 -12.9088687897 21.1386051178
vertex 93.9789733887 -13.0614271164 19.6871032715
vertex 94.3654251099 -12.7677373886 22.4813747406
endloop
endfacet
facet normal 4.39840386708e-16 -0.994521915913 0.104528464377
outer loop
vertex 84.6345977783 -12.9088687897 21.1386051178
vertex 94.3654251099 -12.7677373886 22.4813747406
vertex 77.182510376 -12.8741512299 21.4689178467
endloop
endfacet
facet normal 4.39840386708e-16 -0.994521915913 0.104528464377
outer loop
vertex 77.182510376 -12.8741512299 21.4689178467
vertex 94.3654251099 -12.7677373886 22.4813747406
vertex 78.3592147827 -12.3108167648 26.8286914825
endloop
endfacet
facet normal 4.39840386708e-16 -0.994521915913 0.104528464377
outer loop
vertex 78.3592147827 -12.3108167648 26.8286914825
vertex 94.3654251099 -12.7677373886 22.4813747406
vertex 84.5251312256 -12.0082387924 29.7075195312
endloop
endfacet
facet normal 4.39840386708e-16 -0.994521915913 0.104528464377
outer loop
vertex 93.3531799316 -13.983174324 10.9172687531
vertex 81.0 -14.5 6.0
vertex 91.0 -14.5 6.0
endloop
endfacet
facet normal 4.39840386708e-16 -0.994521915913 0.104528464377
outer loop
vertex 81.0 -14.5 6.0
vertex 93.3531799316 -13.983174324 10.9172687531
vertex 77.182510376 -12.8741512299 21.4689178467
endloop
endfacet
facet normal 4.39840386708e-16 -0.994521915913 0.104528464377
outer loop
vertex 77.182510376 -12.8741512299 21.4689178467
vertex 93.3531799316 -13.983174324 10.9172687531
vertex 93.3531799316 -13.6216459274 14.3569831848
endloop
endfacet
facet normal 4.39840386708e-16 -0.994521915913 0.104528464377
outer loop
vertex 77.182510376 -12.8741512299 21.4689178467
vertex 93.3531799316 -13.6216459274 14.3569831848
vertex 84.6345977783 -12.9088687897 21.1386051178
endloop
endfacet
facet normal -0.201510503888 -0.7785577178 -0.594341158867
outer loop
vertex 84.6345977783 -12.9088687897 21.1386051178
vertex 90.8815841675 -10.8163509369 16.2794780731
vertex 93.0253829956 -13.1716918945 18.638004303
endloop
endfacet
facet normal 0.739989161491 -6.84396417527e-18 -0.672618806362
outer loop
vertex 93.0253829956 -5.82830810547 18.638004303
vertex 93.9789733887 -13.0614271164 19.6871032715
vertex 93.0253829956 -13.1716918945 18.638004303
endloop
endfacet
facet normal 0.739989161491 -6.84396417527e-18 -0.672618806362
outer loop
vertex 93.9789733887 -13.0614271164 19.6871032715
vertex 93.0253829956 -5.82830810547 18.638004303
vertex 93.9789733887 -5.93857240677 19.6871032715
endloop
endfacet
facet normal -0.201638072729 0.778166294098 -0.594810366631
outer loop
vertex 84.6345977783 -6.09113168716 21.1386051178
vertex 93.0253829956 -5.82830810547 18.638004303
vertex 90.8815841675 -8.18660736084 16.2794780731
endloop
endfacet
facet normal 0.739989161491 -1.39901533457e-16 -0.672618806362
outer loop
vertex 90.8815841675 -10.8163509369 16.2794780731
vertex 93.0253829956 -5.82830810547 18.638004303
vertex 93.0253829956 -13.1716918945 18.638004303
endloop
endfacet
facet normal 0.739989161491 -1.39901533457e-16 -0.672618806362
outer loop
vertex 93.0253829956 -5.82830810547 18.638004303
vertex 90.8815841675 -10.8163509369 16.2794780731
vertex 90.8815841675 -8.18660736084 16.2794780731
endloop
endfacet
