solid AssimpScene
 facet normal 0 0 1
  outer loop
  vertex -7.5 7.5 15
  vertex -7.5 -7.5 15
  vertex 7.5 -7.5 15
  endloop
 endfacet

 facet normal 0 0 1
  outer loop
  vertex 7.5 -7.5 15
  vertex 7.5 7.5 15
  vertex -7.5 7.5 15
  endloop
 endfacet

 facet normal 0 -1 0
  outer loop
  vertex -7.5 -7.5 15
  vertex -7.5 -7.5 0
  vertex 7.5 -7.5 0
  endloop
 endfacet

 facet normal 0 -1 0
  outer loop
  vertex 7.5 -7.5 0
  vertex 7.5 -7.5 15
  vertex -7.5 -7.5 15
  endloop
 endfacet

 facet normal 0 1 0
  outer loop
  vertex -7.5 7.5 0
  vertex -7.5 7.5 15
  vertex 7.5 7.5 15
  endloop
 endfacet

 facet normal 0 1 0
  outer loop
  vertex 7.5 7.5 15
  vertex 7.5 7.5 0
  vertex -7.5 7.5 0
  endloop
 endfacet

 facet normal 0 0 -1
  outer loop
  vertex -7.5 -7.5 0
  vertex -7.5 7.5 0
  vertex 7.5 7.5 0
  endloop
 endfacet

 facet normal 0 0 -1
  outer loop
  vertex 7.5 7.5 0
  vertex 7.5 -7.5 0
  vertex -7.5 -7.5 0
  endloop
 endfacet

 facet normal 1 0 0
  outer loop
  vertex 7.5 7.5 15
  vertex 7.5 -7.5 15
  vertex 7.5 -7.5 0
  endloop
 endfacet

 facet normal 1 0 0
  outer loop
  vertex 7.5 -7.5 0
  vertex 7.5 7.5 0
  vertex 7.5 7.5 15
  endloop
 endfacet

 facet normal -1 0 0
  outer loop
  vertex -7.5 7.5 0
  vertex -7.5 -7.5 0
  vertex -7.5 -7.5 15
  endloop
 endfacet

 facet normal -1 0 0
  outer loop
  vertex -7.5 -7.5 15
  vertex -7.5 7.5 15
  vertex -7.5 7.5 0
  endloop
 endfacet

endsolid AssimpScene
